<?xml version="1.0" encoding="utf-8"?>
<!-- Generator: Adobe Illustrator 19.2.1, SVG Export Plug-In . SVG Version: 6.00 Build 0)  -->
<svg version="1.1" id="Layer_1" xmlns="http://www.w3.org/2000/svg" xmlns:xlink="http://www.w3.org/1999/xlink" x="0px" y="0px"
	 viewBox="0 0 612 792" style="enable-background:new 0 0 612 792;" xml:space="preserve">
<style type="text/css">
	.st0{fill:none;stroke:#000000;stroke-width:10;stroke-miterlimit:10;}
	.st1{fill:none;stroke:#000000;stroke-width:10;stroke-linecap:round;stroke-miterlimit:10;}
</style>
<line class="st0" x1="343.8" y1="121" x2="169.8" y2="406.4"/>
<line class="st0" x1="379.4" y1="153.9" x2="343.8" y2="121"/>
<line class="st0" x1="214" y1="429.7" x2="379.4" y2="153.9"/>
<path d="M248.8,370.2c-3-7.6-11.3-10.5-17.4-13.9c-7.2-4.1-14.5-8.2-21.7-12.3c-0.2-2.7-1.8-5.3-4.9-5.3
	c-27.5-0.1-56.5,0.2-82.4,12.4c-13,6.1-24.2,15-33.9,26.6C78,390.4,68.9,404.4,56,414.1c-10.9,8.2-23.1,13.4-35.7,15.7
	c-1.1-0.4-2.4-0.2-3.5,0.6c-2.5,0.3-4.9,0.5-7.3,0.6c-3.9,0.1-6.3,4.9-4.4,8.7c26.7,54.9,83.7,75.1,135.7,69.2
	c25.9-2.9,50.7-10.9,70.9-30.4c17.2-16.7,29.9-39.9,35.5-65c1.6-7,2.6-14.2,3-21.5C250.6,385.1,251.3,376.6,248.8,370.2z"/>
<line class="st1" x1="343.8" y1="121" x2="379.4" y2="153.9"/>
<line class="st0" x1="165.8" y1="121" x2="353.1" y2="406.4"/>
<line class="st0" x1="127.5" y1="153.9" x2="167.4" y2="121"/>
<line class="st0" x1="305.5" y1="429.7" x2="127.5" y2="153.9"/>
<path d="M268.1,370.2c3.2-7.6,12.2-10.5,18.7-13.9c7.7-4.1,15.6-8.2,23.4-12.3c0.2-2.7,1.9-5.3,5.3-5.3c29.6-0.1,60.8,0.2,88.7,12.4
	c14,6.1,26,15,36.5,26.6c11.3,12.7,21.1,26.7,35,36.4c11.7,8.2,24.9,13.4,38.4,15.7c1.2-0.4,2.6-0.2,3.8,0.6
	c2.7,0.3,5.3,0.5,7.9,0.6c4.2,0.1,6.8,4.9,4.7,8.7c-28.7,54.9-90.1,75.1-146,69.2c-27.9-2.9-54.6-10.9-76.3-30.4
	c-18.5-16.7-32.2-39.9-38.2-65c-1.7-7-2.8-14.2-3.2-21.5C266.1,385.1,265.4,376.6,268.1,370.2z"/>
<line class="st1" x1="167.4" y1="121" x2="127.5" y2="153.9"/>
</svg>
