<?xml version="1.0" encoding="UTF-8" standalone="no"?>
<!-- Created with Inkscape (http://www.inkscape.org/) -->

<svg
   xmlns:dc="http://purl.org/dc/elements/1.1/"
   xmlns:cc="http://creativecommons.org/ns#"
   xmlns:rdf="http://www.w3.org/1999/02/22-rdf-syntax-ns#"
   xmlns:svg="http://www.w3.org/2000/svg"
   xmlns="http://www.w3.org/2000/svg"
   xmlns:sodipodi="http://sodipodi.sourceforge.net/DTD/sodipodi-0.dtd"
   xmlns:inkscape="http://www.inkscape.org/namespaces/inkscape"
   width="210mm"
   height="297mm"
   viewBox="0 0 744.09448819 1052.3622047"
   id="svg2"
   version="1.1"
   inkscape:version="0.91 r13725"
   sodipodi:docname="drop.svg">
  <defs
     id="defs4">
    <inkscape:path-effect
       effect="spiro"
       id="path-effect4274"
       is_visible="true" />
    <inkscape:path-effect
       effect="spiro"
       id="path-effect4262"
       is_visible="true" />
    <inkscape:path-effect
       effect="spiro"
       id="path-effect4258"
       is_visible="true" />
    <inkscape:path-effect
       effect="spiro"
       id="path-effect4254"
       is_visible="true" />
    <inkscape:path-effect
       effect="spiro"
       id="path-effect4250"
       is_visible="true" />
    <inkscape:path-effect
       effect="spiro"
       id="path-effect4246"
       is_visible="true" />
    <inkscape:path-effect
       effect="spiro"
       id="path-effect4242"
       is_visible="true" />
    <inkscape:path-effect
       effect="spiro"
       id="path-effect4238"
       is_visible="true" />
    <inkscape:path-effect
       effect="spiro"
       id="path-effect4176"
       is_visible="true" />
    <inkscape:path-effect
       effect="spiro"
       id="path-effect4172"
       is_visible="true" />
    <inkscape:path-effect
       effect="spiro"
       id="path-effect4168"
       is_visible="true" />
    <inkscape:path-effect
       effect="spiro"
       id="path-effect4156"
       is_visible="true" />
    <inkscape:path-effect
       effect="spiro"
       id="path-effect4150"
       is_visible="true" />
    <inkscape:path-effect
       effect="spiro"
       id="path-effect4142"
       is_visible="true" />
    <inkscape:path-effect
       effect="spiro"
       id="path-effect4138"
       is_visible="true" />
  </defs>
  <sodipodi:namedview
     id="base"
     pagecolor="#ffffff"
     bordercolor="#666666"
     borderopacity="1.0"
     inkscape:pageopacity="0.0"
     inkscape:pageshadow="2"
     inkscape:zoom="0.49497475"
     inkscape:cx="-353.68943"
     inkscape:cy="503.16739"
     inkscape:document-units="px"
     inkscape:current-layer="layer1"
     showgrid="false"
     inkscape:window-width="1920"
     inkscape:window-height="1017"
     inkscape:window-x="-8"
     inkscape:window-y="-8"
     inkscape:window-maximized="1" />
  <metadata
     id="metadata7">
    <rdf:RDF>
      <cc:Work
         rdf:about="">
        <dc:format>image/svg+xml</dc:format>
        <dc:type
           rdf:resource="http://purl.org/dc/dcmitype/StillImage" />
      </cc:Work>
    </rdf:RDF>
  </metadata>
  <g
     inkscape:label="Layer 1"
     inkscape:groupmode="layer"
     id="layer1">
    <ellipse
       style="fill:none;fill-opacity:1;stroke:#000000;stroke-width:11.98351574;stroke-linecap:round;stroke-linejoin:round;stroke-miterlimit:4;stroke-dasharray:none;stroke-opacity:1"
       id="path4152"
       cx="377.50476"
       cy="228.11195"
       rx="74.364082"
       ry="68.763496" />
    <path
       style="fill:none;fill-rule:evenodd;stroke:#000000;stroke-width:0;stroke-linecap:butt;stroke-linejoin:miter;stroke-miterlimit:4;stroke-dasharray:none;stroke-opacity:1"
       d="M 328.11793,180.02921 231.61491,281.36489"
       id="path4154"
       inkscape:path-effect="#path-effect4156"
       inkscape:original-d="M 328.11793,180.02921 231.61491,281.36489"
       inkscape:connector-curvature="0" />
    <path
       style="fill:none;fill-rule:evenodd;stroke:#000000;stroke-width:11.98351574;stroke-linecap:butt;stroke-linejoin:miter;stroke-miterlimit:4;stroke-dasharray:none;stroke-opacity:1"
       d="M 325.84727,181.06324 231.61491,281.36489"
       id="path4166"
       inkscape:path-effect="#path-effect4168"
       inkscape:original-d="M 325.84727,181.06324 C 231.61491,281.36489 231.61491,281.36489 231.61491,281.36489"
       inkscape:connector-curvature="0" />
    <path
       style="fill:none;fill-rule:evenodd;stroke:#000000;stroke-width:11.98351574;stroke-linecap:butt;stroke-linejoin:miter;stroke-miterlimit:4;stroke-dasharray:none;stroke-opacity:1"
       d="m 431.43292,275.16067 -90.82637,98.23357"
       id="path4170"
       inkscape:path-effect="#path-effect4172"
       inkscape:original-d="m 431.43292,275.16067 c -89.69104,98.23357 -90.82637,98.23357 -90.82637,98.23357"
       inkscape:connector-curvature="0" />
    <path
       style="fill:none;fill-rule:evenodd;stroke:#000000;stroke-width:1.51690066px;stroke-linecap:butt;stroke-linejoin:miter;stroke-opacity:1"
       d="M 290.65205,434.40246 161.22449,341.33908"
       id="path4174"
       inkscape:path-effect="#path-effect4176"
       inkscape:original-d="M 290.65205,434.40246 C 283.84007,432.33438 161.22449,341.33908 161.22449,341.33908"
       inkscape:connector-curvature="0" />
    <path
       style="fill:none;fill-opacity:1;stroke:#000000;stroke-width:8.55965424;stroke-linecap:round;stroke-linejoin:round;stroke-miterlimit:4;stroke-dasharray:none;stroke-opacity:1"
       d="m 312.33862,446.3521 c -11.13889,-7.89902 -20.56773,-14.18443 -20.95297,-13.96757 -0.38522,0.21682 -28.50193,-19.63413 -62.4816,-44.11326 -33.97965,-24.47913 -72.11625,-51.61642 -84.74798,-60.30505 l -22.96681,-15.79756 29.74005,-34.14303 29.74004,-34.14305 11.9597,9.87097 c 32.18984,26.56796 69.0595,56.42763 100.71273,81.56433 19.22246,15.26509 38.47659,30.89561 42.78693,34.73446 4.31037,3.83887 8.31392,6.97976 8.89681,6.97976 0.5829,0 11.05515,7.77279 23.27167,17.27287 l 22.21187,17.27285 -8.41225,7.28553 c -4.62675,4.00705 -17.65826,15.06268 -28.95894,24.56807 l -20.54668,17.28251 -20.25257,-14.36183 z"
       id="path4178"
       inkscape:connector-curvature="0" />
    <path
       style="fill:none;fill-opacity:1;stroke:#000000;stroke-width:8.55965424;stroke-linecap:round;stroke-linejoin:round;stroke-miterlimit:4;stroke-dasharray:none;stroke-opacity:1"
       d="m 313.58038,441.58677 c -12.0515,-8.52473 -19.12056,-12.85525 -21.00359,-12.8669 -2.88176,-0.0178 -7.59162,-2.00727 -4.82516,-2.03814 2.69721,-0.0301 1.39637,-1.6579 -4.54131,-5.68286 -3.27826,-2.22221 -29.46179,-20.85065 -58.18563,-41.3965 -28.72385,-20.54588 -62.20672,-44.31627 -74.40639,-52.82312 l -22.18123,-15.46699 26.15488,-30.16556 c 14.38518,-16.59106 26.48199,-30.07208 26.88177,-29.95785 0.39979,0.11422 14.70495,11.62761 31.78923,25.5853 17.08429,13.95769 50.66129,41.17872 74.61557,60.49121 23.95428,19.31246 45.9229,37.0733 48.81918,39.46851 2.89625,2.39521 5.59986,4.3728 6.00799,4.39465 0.40814,0.0219 2.45172,1.39314 4.54131,3.04733 2.0896,1.65418 10.84958,8.44798 19.46666,15.09734 8.61708,6.64935 15.51421,12.44349 15.32695,12.87585 -0.41455,0.9572 -48.55477,41.84341 -49.57285,42.10297 -0.39716,0.10123 -8.89647,-5.59811 -18.88738,-12.66524 z"
       id="path4180"
       inkscape:connector-curvature="0" />
    <path
       style="fill:none;fill-opacity:1;stroke:#000000;stroke-width:8.55965424;stroke-linecap:round;stroke-linejoin:round;stroke-miterlimit:4;stroke-dasharray:none;stroke-opacity:1"
       d="m 318.12171,438.95975 c -7.49318,-5.15062 -15.923,-10.57048 -18.73294,-12.04413 -2.80996,-1.47366 -6.13078,-3.71939 -7.37965,-4.99052 -2.16525,-2.2039 -42.30628,-30.91055 -115.23595,-82.41041 -18.42072,-13.00794 -35.20687,-24.89443 -37.30256,-26.4144 l -3.81036,-2.76362 22.80592,-26.10944 c 12.54325,-14.36019 23.10248,-26.10946 23.46498,-26.10946 0.36247,0 35.48531,28.20709 78.05075,62.68242 42.56542,34.47533 78.169,62.95336 79.11904,63.28452 0.95005,0.33116 2.4937,1.36699 3.43035,2.30185 0.93663,0.93486 8.4724,6.92814 16.7461,13.31839 8.27373,6.39025 15.04313,11.95111 15.04313,12.35745 0,0.72346 -40.5118,35.57807 -41.87991,36.03169 -0.38224,0.12681 -6.82574,-3.98372 -14.3189,-9.13434 z"
       id="path4182"
       inkscape:connector-curvature="0" />
    <path
       style="fill:none;fill-opacity:1;stroke:#000000;stroke-width:8.55965424;stroke-linecap:round;stroke-linejoin:round;stroke-miterlimit:4;stroke-dasharray:none;stroke-opacity:1"
       d="M 318.59244,433.64566 C 297.871,420.19816 297.86938,420.19703 262.25631,394.56615 243.65222,381.1767 209.13607,356.5598 185.55376,339.86192 c -37.97721,-26.89044 -42.70002,-30.5484 -41.32892,-32.01058 0.85141,-0.90795 9.81333,-11.07348 19.91536,-22.59008 16.71843,-19.05944 20.58027,-22.80737 20.58027,-19.9731 0,0.80794 119.68904,97.81553 143.05152,115.94284 27.20675,21.1101 38.60123,30.24542 38.60123,30.94785 0,0.77148 -33.33004,29.99762 -34.20986,29.99762 -0.23412,0 -6.34103,-3.83886 -13.57092,-8.53081 z"
       id="path4184"
       inkscape:connector-curvature="0" />
    <path
       style="fill:none;fill-opacity:1;stroke:#000000;stroke-width:8.55965424;stroke-linecap:round;stroke-linejoin:round;stroke-miterlimit:4;stroke-dasharray:none;stroke-opacity:1"
       d="M 325.50134,432.50377 C 322.69141,430.63065 315.2883,425.71146 309.05002,421.57222 297.41454,413.85184 162.23535,317.54793 154.63867,311.56698 l -4.22325,-3.325 16.17942,-18.34085 c 8.89869,-10.08748 16.62191,-18.34086 17.16272,-18.34086 0.54081,0 6.47086,4.56795 13.1779,10.151 25.79737,21.47418 115.00923,93.28957 145.87965,117.43289 8.58595,6.71491 15.61079,12.52102 15.61079,12.90246 0,1.12709 -25.477,23.92852 -26.69801,23.89421 -0.61465,-0.0172 -3.41661,-1.56395 -6.22655,-3.43706 z"
       id="path4186"
       inkscape:connector-curvature="0" />
    <path
       style="fill:none;fill-opacity:1;stroke:#000000;stroke-width:8.55965424;stroke-linecap:round;stroke-linejoin:round;stroke-miterlimit:4;stroke-dasharray:none;stroke-opacity:1"
       d="M 318.68937,422.32222 C 299.19624,409.05594 215.54002,349.67449 170.77287,317.32709 l -13.37996,-9.66797 12.12645,-13.65476 c 6.66953,-7.51012 12.7383,-14.26331 13.48612,-15.0071 1.0931,-1.08718 5.9037,2.35936 24.53577,17.57865 30.26213,24.71909 84.46013,68.36298 117.87199,94.91848 l 26.59212,21.13525 -10.06532,8.56919 c -5.53592,4.71306 -10.60525,8.54544 -11.26518,8.51642 -0.65993,-0.0291 -6.05339,-3.35588 -11.98549,-7.39303 z"
       id="path4188"
       inkscape:connector-curvature="0" />
    <path
       style="fill:none;fill-opacity:1;stroke:#000000;stroke-width:8.55965424;stroke-linecap:round;stroke-linejoin:round;stroke-miterlimit:4;stroke-dasharray:none;stroke-opacity:1"
       d="M 317.41737,415.58821 C 300.04695,403.6243 257.78873,373.68767 207.06969,337.41552 178.96876,317.3189 165.47289,307.04914 165.8835,306.07463 c 0.81272,-1.92899 17.99657,-21.07188 18.91541,-21.07188 0.39519,0 15.14556,11.67404 32.77858,25.94228 17.63302,14.26825 53.40574,43.05481 79.49493,63.97015 l 47.43492,38.02788 -7.08517,5.77177 -7.08515,5.77179 -12.91965,-8.89841 z"
       id="path4190"
       inkscape:connector-curvature="0" />
    <path
       style="fill:none;fill-opacity:1;stroke:#000000;stroke-width:8.55965424;stroke-linecap:round;stroke-linejoin:round;stroke-miterlimit:4;stroke-dasharray:none;stroke-opacity:1"
       d="M 310.1744,404.72869 C 248.58899,361.40969 181.95055,313.62404 175.9862,308.5039 l -3.6253,-3.11216 6.35524,-7.03594 6.35526,-7.03594 3.69203,2.78717 c 2.03062,1.53293 36.13159,28.8449 75.77993,60.69326 l 72.0879,57.9061 -2.93904,2.8436 c -1.61647,1.56398 -3.22665,2.8236 -3.57813,2.79915 -0.3515,-0.0244 -9.32436,-6.15365 -19.93969,-13.62045 z"
       id="path4192"
       inkscape:connector-curvature="0" />
    <path
       style="fill:none;fill-opacity:1;stroke:#000000;stroke-width:8.55965424;stroke-linecap:round;stroke-linejoin:round;stroke-miterlimit:4;stroke-dasharray:none;stroke-opacity:1"
       d="M 271.00553,371.25311 C 250.7115,356.78828 221.7713,336.02304 206.69393,325.10815 l -27.41339,-19.84528 2.85473,-3.40881 c 1.5701,-1.87485 3.20137,-3.40881 3.62506,-3.40881 0.6575,0 115.76872,91.72044 122.11187,97.29854 1.23151,1.08299 1.74241,1.93305 1.13533,1.88904 -0.60709,-0.044 -17.70798,-11.91489 -38.002,-26.37972 z"
       id="path4194"
       inkscape:connector-curvature="0" />
    <path
       style="fill:none;fill-opacity:1;stroke:#000000;stroke-width:8.55965424;stroke-linecap:round;stroke-linejoin:round;stroke-miterlimit:4;stroke-dasharray:none;stroke-opacity:1"
       d="m 320.39237,456.55076 c -5.6199,-4.01953 -14.45393,-10.17132 -19.63124,-13.67066 -5.17726,-3.49934 -8.87811,-6.52489 -8.22406,-6.72345 0.65405,-0.19857 0.88507,-0.80921 0.51339,-1.35697 -0.43106,-0.63522 -1.16429,-0.62672 -2.0245,0.0234 -1.62396,1.22757 0.80851,2.87685 -63.16295,-42.82627 -58.77953,-41.99383 -81.58386,-58.12692 -97.88819,-69.25175 -8.20673,-5.59963 -12.13821,-8.94045 -12.16854,-10.34037 -0.0576,-2.65279 59.63265,-71.23836 62.36961,-71.6644 1.30803,-0.20359 9.90546,6.13359 24.19899,17.83715 12.19358,9.98413 22.62745,18.15296 23.18634,18.15296 1.59819,0 76.34884,-80.24076 83.15154,-89.25868 17.85838,-23.67374 46.41544,-36.05274 75.5604,-32.75418 64.04748,7.24877 93.40298,76.16201 51.7545,121.49583 -3.65743,3.98105 -25.36308,27.45221 -48.23478,52.15816 -22.87174,24.70595 -41.58494,45.2034 -41.58494,45.54992 0,0.34654 3.70206,3.39843 8.22681,6.78201 21.06228,15.75016 38.32169,29.67189 38.32169,30.91084 0,2.04658 -59.66282,52.27948 -62.07134,52.26075 -1.14112,-0.009 -6.67286,-3.30483 -12.29273,-7.32435 z m 1.7709,-50.61958 c -4.64588,-3.8848 -8.88775,-6.8152 -9.42638,-6.512 -0.53866,0.30319 -0.82467,0.90441 -0.6356,1.33604 0.70653,1.61289 17.1662,13.51774 17.82391,12.89156 0.37682,-0.35877 -3.11605,-3.8308 -7.76193,-7.7156 z m 48.18359,-72.57731 c 16.85965,-18.27843 30.81141,-33.57547 31.00391,-33.99338 0.1925,-0.41793 -2.36199,-0.0831 -5.67665,0.74425 -7.57175,1.88972 -25.45649,2.11345 -34.4099,0.43046 -20.17003,-3.79142 -39.61228,-16.18279 -51.13738,-32.59202 -8.33645,-11.8693 -14.1494,-32.26822 -12.62441,-44.3019 0.65645,-5.18018 0.61976,-5.26925 -1.27335,-3.08931 -1.07212,1.23454 -14.72175,15.80456 -30.33254,32.37779 -15.61079,16.57325 -28.38324,30.73024 -28.38324,31.45998 0,0.72974 21.71604,18.77985 48.25785,40.11136 26.54181,21.33151 48.95617,39.55092 49.80968,40.48759 0.85351,0.93667 2.12791,1.67957 2.83197,1.65088 0.7041,-0.0286 15.07442,-15.00726 31.93406,-33.2857 z M 197.20911,310.76903 c -8.5455,-7.17825 -10.92638,-8.61928 -11.89133,-7.19727 -0.75052,1.10601 15.79567,13.51245 17.92618,13.44118 0.73964,-0.0248 -1.97604,-2.8345 -6.03485,-6.24391 z m 197.02498,-21.13546 c 12.30967,-2.8623 20.79665,-7.40224 30.71484,-16.43032 14.28075,-12.99913 20.89735,-27.27017 20.89735,-45.07256 0,-19.87536 -10.03052,-38.81376 -26.68026,-50.37445 -12.68636,-8.80873 -25.49742,-12.70185 -41.798,-12.70185 -11.5205,0 -21.0322,1.94537 -30.26356,6.18959 -8.1297,3.73771 -18.19713,10.95227 -18.19713,13.0405 0,0.88183 -2.87182,4.68646 -6.38184,8.45473 -9.73642,10.45283 -13.34511,20.02311 -13.34511,35.39148 0,11.08306 1.76209,17.92977 7.38284,28.6868 8.0988,15.49952 24.87869,28.11717 43.61941,32.79965 7.74704,1.93565 25.7602,1.94435 34.05146,0.0165 l 0,0 z"
       id="path4196"
       inkscape:connector-curvature="0" />
    <path
       style="fill:none;fill-opacity:1;stroke:#000000;stroke-width:8.55965424;stroke-linecap:round;stroke-linejoin:round;stroke-miterlimit:4;stroke-dasharray:none;stroke-opacity:1"
       d="m 311.80496,454.99474 c -9.63884,-6.59925 -18.83037,-13.11368 -20.42562,-14.47653 -1.59525,-1.36284 -3.2998,-2.47789 -3.7879,-2.47789 -1.24635,0 -12.16901,-7.626 -73.07804,-51.02184 -29.40898,-20.953 -53.845,-38.0117 -54.30229,-37.90822 -0.45729,0.10351 -1.24819,-0.49016 -1.75757,-1.31915 -0.50936,-0.82901 -9.05931,-7.1395 -18.99987,-14.02336 -21.03136,-14.56425 -25.12362,-18.04489 -25.12362,-21.36876 0,-2.80743 9.83051,-15.13228 34.63554,-43.42382 21.42669,-24.43833 28.5062,-31.53814 31.44795,-31.53814 2.84387,0 7.16323,3.05501 29.5622,20.90889 16.99659,13.54771 19.3971,15.2735 18.73877,13.4715 -0.15609,-0.4273 8.93844,-10.54793 20.21016,-22.49033 22.26555,-23.59041 49.96607,-53.82764 62.06172,-67.74512 12.20384,-14.04195 26.40178,-23.09595 44.03352,-28.08008 7.09419,-2.00537 10.88294,-2.39407 22.7066,-2.32952 12.93439,0.0706 15.16995,0.37921 25.23506,3.48336 13.68198,4.2196 25.30571,11.02123 35.0215,20.49284 8.83914,8.61699 14.02774,16.35461 18.24445,27.20742 7.75555,19.96097 6.22565,42.30685 -4.17654,61.00316 -3.86513,6.94697 -10.77825,15.01027 -38.31014,44.68408 -40.41759,43.562 -59.85994,64.92226 -59.78387,65.68137 0.0399,0.39731 6.247,5.37557 13.79376,11.06277 20.77501,15.65597 30.4117,24.14238 30.4117,26.78159 0,2.39397 -16.70975,17.90755 -39.73653,36.89196 -20.31372,16.74765 -22.82356,18.53245 -26.06102,18.53245 -2.10819,0 -8.38537,-3.66333 -20.55992,-11.99863 z m 44.63487,-112.34439 c 23.71787,-25.36617 33.72774,-36.33902 33.7537,-37.00088 0.0117,-0.30309 -6.2369,-0.6078 -13.88619,-0.67718 -10.81299,-0.098 -15.67626,-0.62766 -21.85509,-2.38002 -20.18886,-5.72576 -38.02948,-18.40409 -48.78118,-34.66607 -4.64969,-7.03267 -10.42033,-22.78966 -11.46466,-31.30484 -0.43867,-3.57658 -1.18081,-6.36849 -1.64921,-6.20421 -1.23863,0.43432 -48.86135,51.724 -49.66535,53.48956 -0.37365,0.82054 0.0499,1.71007 0.94356,1.98135 0.89189,0.27079 4.43236,2.91967 7.86772,5.88645 10.92179,9.43202 85.60736,69.74703 86.36484,69.74703 0.3998,0 8.66714,-8.49204 18.37186,-18.87119 z m 40.75151,-57.61051 c 9.63503,-2.71203 17.04201,-7.13769 25.98521,-15.5261 8.28127,-7.76749 13.78851,-16.30167 16.39001,-25.39844 2.20221,-7.70054 2.22912,-24.03393 0.0517,-31.49518 -5.29777,-18.15516 -19.53133,-33.03775 -38.20719,-39.9494 -12.54466,-4.64256 -33.83957,-4.83243 -46.65876,-0.416 -8.61543,2.96818 -20.06507,10.01889 -22.32839,13.74988 -0.99757,1.64449 -4.03917,5.63017 -6.75907,8.85704 -10.12616,12.01357 -13.50858,22.43479 -12.30853,37.92243 1.8414,23.76506 18.96485,43.97838 44.28946,52.28139 8.48623,2.78232 29.61834,2.76864 39.54537,-0.0257 l 0,10e-6 z"
       id="path4198"
       inkscape:connector-curvature="0" />
    <path
       style="fill:none;fill-opacity:1;stroke:#000000;stroke-width:8.55965424;stroke-linecap:round;stroke-linejoin:round;stroke-miterlimit:4;stroke-dasharray:none;stroke-opacity:1"
       d="m 299.38877,324.46218 c -20.91845,-16.9319 -40.73923,-33.08594 -44.0462,-35.89788 l -6.01262,-5.11261 20.08197,-21.60231 20.08197,-21.60232 2.71588,8.56794 c 5.46214,17.23173 11.07198,26.2914 23.06592,37.25053 14.63748,13.37459 32.19628,21.10387 52.44172,23.08449 l 12.12984,1.18665 -18.73735,20.16373 c -10.30553,11.09007 -19.85115,21.195 -21.21246,22.45541 l -2.47514,2.29168 -38.03353,-30.78531 z"
       id="path4200"
       inkscape:connector-curvature="0" />
    <path
       style="fill:none;fill-opacity:1;stroke:#000000;stroke-width:8.55965424;stroke-linecap:round;stroke-linejoin:round;stroke-miterlimit:4;stroke-dasharray:none;stroke-opacity:1"
       d="m 318.60726,333.8902 c -9.63352,-7.80387 -27.58617,-22.43042 -39.89475,-32.50345 l -22.37925,-18.3146 15.43473,-16.62861 15.43472,-16.62859 2.77481,7.51204 c 3.6771,9.9548 8.26423,17.62528 15.228,25.46384 12.20102,13.73372 31.66877,25.01008 49.3831,28.60434 4.92046,0.99836 10.30212,2.09926 11.95928,2.44643 2.92298,0.61237 2.54092,1.13325 -12.78788,17.43434 -8.69048,9.24172 -16.21407,16.8031 -16.71908,16.8031 -0.505,0 -8.80016,-6.38498 -18.43368,-14.18884 z"
       id="path4202"
       inkscape:connector-curvature="0" />
    <path
       style="fill:none;fill-opacity:1;stroke:#000000;stroke-width:8.55965424;stroke-linecap:round;stroke-linejoin:round;stroke-miterlimit:4;stroke-dasharray:none;stroke-opacity:1"
       d="m 312.27793,322.45294 c -13.12601,-10.64499 -29.52245,-23.97149 -36.43652,-29.61445 l -12.57101,-10.25992 9.72697,-10.42082 c 5.34985,-5.73147 10.33062,-11.02889 11.06836,-11.77207 1.06663,-1.07446 1.75295,-0.33318 3.35075,3.61913 9.45808,23.3955 36.34133,44.71567 64.93714,51.49942 3.5288,0.83714 6.62969,1.71668 6.89087,1.95456 0.47872,0.436 -18.53346,20.8961 -21.50335,23.14099 -1.29358,0.9778 -6.1408,-2.47667 -25.46321,-18.14684 z"
       id="path4204"
       inkscape:connector-curvature="0" />
    <path
       style="fill:none;fill-opacity:1;stroke:#000000;stroke-width:8.55965424;stroke-linecap:round;stroke-linejoin:round;stroke-miterlimit:4;stroke-dasharray:none;stroke-opacity:1"
       d="m 303.03782,308.70857 c -17.61777,-14.26039 -32.02776,-26.24229 -32.0222,-26.62645 0.0117,-0.81532 11.26201,-12.97721 12.375,-13.37781 0.4139,-0.14896 2.07554,2.17761 3.69255,5.17019 6.64614,12.3 19.52704,24.90511 34.68246,33.93991 8.1323,4.848 23.52102,11.31158 26.93103,11.31158 0.98007,0 1.78194,0.28328 1.78194,0.62952 0,1.20186 -13.06283,14.84212 -14.23239,14.86154 -0.64687,0.0103 -15.59063,-11.64809 -33.20839,-25.90848 z"
       id="path4212"
       inkscape:connector-curvature="0" />
    <path
       style="fill:none;fill-opacity:1;stroke:#000000;stroke-width:8.55965424;stroke-linecap:round;stroke-linejoin:round;stroke-miterlimit:4;stroke-dasharray:none;stroke-opacity:1"
       d="m 321.52769,317.37404 c -7.49317,-6.0287 -20.3921,-16.49462 -28.66427,-23.25761 -15.02128,-12.28076 -15.03801,-12.29956 -13.20956,-14.84116 1.00693,-1.39964 2.16357,-2.54481 2.5703,-2.54481 0.40673,0 2.36737,2.47882 4.35701,5.50848 4.92027,7.49222 16.91349,19.09157 26.16942,25.30998 4.20297,2.82367 12.38818,7.29572 18.18933,9.93788 7.07277,3.22132 10.28858,5.21943 9.76144,6.06516 -1.26882,2.03571 -4.14248,4.8844 -4.87418,4.83187 -0.37154,-0.0266 -6.80631,-4.98108 -14.29949,-11.00979 z"
       id="path4214"
       inkscape:connector-curvature="0" />
    <path
       style="fill:none;fill-opacity:1;stroke:#000000;stroke-width:8.55965424;stroke-linecap:round;stroke-linejoin:round;stroke-miterlimit:4;stroke-dasharray:none;stroke-opacity:1"
       d="m 365.43576,281.87505 c -9.58639,-1.27095 -19.95285,-6.55483 -29.15282,-14.85948 -12.60605,-11.37924 -17.55603,-22.55361 -17.58009,-39.68624 -0.0175,-12.41498 2.16185,-18.04392 11.92235,-30.79436 10.99236,-14.35964 20.75221,-20.13664 37.70939,-22.32076 28.98863,-3.73377 54.82927,10.32659 64.7562,35.23499 2.2232,5.57846 2.66367,8.67875 2.66367,18.74917 0,13.50285 -1.82444,20.01594 -8.10308,28.92741 -5.03915,7.15223 -17.922,17.83922 -25.37652,21.05115 -9.40965,4.05432 -23.49058,5.46786 -36.8391,3.69812 z"
       id="path4216"
       inkscape:connector-curvature="0" />
    <path
       style="fill:none;fill-opacity:1;stroke:#000000;stroke-width:8.55965424;stroke-linecap:round;stroke-linejoin:round;stroke-miterlimit:4;stroke-dasharray:none;stroke-opacity:1"
       d="m 359.86533,275.80518 c -7.16138,-2.42286 -11.57889,-5.09029 -18.853,-11.38403 -12.36055,-10.69464 -16.81922,-20.44423 -16.93102,-37.02253 -0.0661,-9.80606 0.18233,-11.02964 3.47781,-17.12649 4.5152,-8.35337 13.45538,-19.13292 19.46137,-23.46534 13.63061,-9.83248 38.50097,-11.1234 56.16614,-2.91536 13.73196,6.38052 25.871,22.9563 27.3518,37.34874 1.05265,10.2311 -0.80082,22.21614 -4.50093,29.10414 -4.13526,7.69808 -17.33141,19.39725 -26.53292,23.52298 -6.72144,3.01374 -8.36672,3.30359 -20.50345,3.61214 -10.90256,0.27717 -14.22783,-0.0145 -19.1358,-1.67425 z"
       id="path4218"
       inkscape:connector-curvature="0" />
    <path
       style="fill:none;fill-opacity:1;stroke:#000000;stroke-width:8.55965424;stroke-linecap:round;stroke-linejoin:round;stroke-miterlimit:4;stroke-dasharray:none;stroke-opacity:1"
       d="m 361.26422,271.31609 c -9.49569,-3.10841 -22.40732,-13.90693 -27.09217,-22.65827 -5.21112,-9.73439 -6.84382,-24.46308 -3.63112,-32.75645 4.23564,-10.93402 17.69926,-25.48758 26.9215,-29.10094 12.59081,-4.93316 29.05113,-4.74116 41.58503,0.4851 8.01973,3.34397 16.95722,11.84962 21.79296,20.73992 3.44651,6.33628 3.95881,8.34021 4.36066,17.05756 0.79724,17.2941 -3.67629,27.06418 -17.21619,37.59963 -3.24453,2.52459 -8.51653,5.78751 -11.7155,7.25092 -5.27168,2.41158 -7.02358,2.65309 -18.70777,2.5791 -7.09027,-0.0448 -14.42411,-0.58335 -16.2974,-1.19657 z"
       id="path4220"
       inkscape:connector-curvature="0" />
    <path
       style="fill:none;fill-opacity:1;stroke:#000000;stroke-width:8.55965424;stroke-linecap:round;stroke-linejoin:round;stroke-miterlimit:4;stroke-dasharray:none;stroke-opacity:1"
       d="m 370.34686,267.40347 c -9.01178,-0.60972 -13.3369,-2.4022 -20.68862,-8.5742 -10.63028,-8.92442 -15.42281,-18.93892 -15.43335,-32.24964 -0.008,-9.51426 3.8636,-16.80181 14.36589,-27.04421 7.10651,-6.93068 8.49421,-7.79373 15.7662,-9.80546 9.14583,-2.53011 20.23315,-2.26637 29.58828,0.70384 8.08842,2.56804 17.00299,10.52997 21.9056,19.56471 4.07199,7.50404 4.08408,7.56706 3.70025,19.29314 -0.45911,14.02625 -2.29983,18.30843 -11.46236,26.66564 -11.45285,10.44624 -18.94353,12.71799 -37.74189,11.44618 z"
       id="path4222"
       inkscape:connector-curvature="0" />
    <path
       style="fill:none;fill-opacity:1;stroke:#000000;stroke-width:8.55965424;stroke-linecap:round;stroke-linejoin:round;stroke-miterlimit:4;stroke-dasharray:none;stroke-opacity:1"
       d="m 366.33465,262.39939 c -4.61654,-0.89902 -5.78002,-1.46853 -11.58202,-5.6692 -13.46161,-9.74628 -19.30454,-29.3965 -12.40407,-41.71578 3.56715,-6.36836 13.90191,-16.87116 18.91179,-19.21926 5.72229,-2.68202 19.61865,-3.57952 27.7876,-1.79466 7.27939,1.5905 17.2899,9.60857 22.17567,17.76193 3.08802,5.15329 3.28612,6.17691 3.05323,15.77573 -0.137,5.64567 -0.87219,12.16011 -1.63382,14.47652 -1.65673,5.03881 -12.84469,15.70486 -19.48134,18.57255 -4.88559,2.11106 -20.03674,3.13452 -26.82704,1.81217 z"
       id="path4224"
       inkscape:connector-curvature="0" />
    <path
       style="fill:none;fill-opacity:1;stroke:#000000;stroke-width:8.55965424;stroke-linecap:round;stroke-linejoin:round;stroke-miterlimit:4;stroke-dasharray:none;stroke-opacity:1"
       d="m 363.21158,256.39661 c -5.56036,-2.49604 -13.43666,-11.06767 -16.07795,-17.49734 -3.07937,-7.49606 -3.05601,-15.99117 0.06,-21.85394 3.1466,-5.92009 13.08833,-15.74742 17.70994,-17.50617 2.14841,-0.81758 7.86288,-1.39555 13.7977,-1.39555 9.59775,0 10.41527,0.17875 15.54652,3.39938 2.97884,1.86968 7.50497,6.09637 10.0581,9.39264 l 4.64204,5.99326 -0.0966,11.14874 c -0.0825,9.52012 -0.45452,11.67612 -2.54639,14.75883 -3.82856,5.64209 -13.04717,12.92122 -17.92674,14.1552 -6.72758,1.7013 -20.79193,1.36877 -25.16668,-0.59505 z"
       id="path4226"
       inkscape:connector-curvature="0" />
    <path
       style="fill:none;fill-opacity:1;stroke:#000000;stroke-width:8.55965424;stroke-linecap:round;stroke-linejoin:round;stroke-miterlimit:4;stroke-dasharray:none;stroke-opacity:1"
       d="m 370.31521,253.02609 c -5.53227,-0.81481 -8.4242,-2.56176 -13.08989,-7.90732 -4.9821,-5.7081 -6.92105,-10.40351 -7.01518,-16.98808 -0.102,-7.13936 2.60959,-12.13182 10.46933,-19.27531 5.49798,-4.99694 6.28679,-5.35852 13.15042,-6.02797 12.50956,-1.22014 17.51832,0.7563 25.64417,10.11911 l 4.5588,5.25278 -0.38073,10.39439 c -0.43451,11.86314 -1.88435,14.5491 -11.16634,20.68663 -5.55735,3.67469 -13.51948,5.01991 -22.17058,3.74577 z"
       id="path4228"
       inkscape:connector-curvature="0" />
    <path
       style="fill:#fffffe;fill-opacity:1;stroke:#000000;stroke-width:8.55965424;stroke-linecap:round;stroke-linejoin:round;stroke-miterlimit:4;stroke-dasharray:none;stroke-opacity:1"
       d="m 361.39869,222.7859 c -3.14506,-1.15879 -8.28403,-6.80958 -10.84364,-11.92364 -4.1079,-8.20742 -2.21712,-14.7924 6.65439,-23.17527 l 5.56741,-5.26076 7.87218,0.007 c 9.03436,0.007 11.60802,1.17453 18.00368,8.16153 4.14307,4.52614 4.16073,4.58644 3.48016,11.89143 -0.96923,10.40393 -1.27377,11.33007 -4.78984,14.56653 -6.22112,5.72639 -18.56171,8.45351 -25.94434,5.73338 z"
       id="path4230"
       inkscape:connector-curvature="0" />
    <path
       style="fill:#000000;fill-opacity:1;stroke:#000000;stroke-width:8.55965424;stroke-linecap:round;stroke-linejoin:round;stroke-miterlimit:4;stroke-dasharray:none;stroke-opacity:1"
       d="m 367.98361,247.8096 c -5.46595,-2.01392 -12.89174,-13.12937 -12.93876,-19.36764 l -0.0249,-3.30786 3.93718,1.4983 c 9.47463,3.60556 24.1353,0.45569 32.13659,-6.9046 l 4.58991,-4.22219 1.85209,2.57446 c 1.4595,2.02876 1.70737,4.07911 1.16939,9.67316 -0.97994,10.18976 -1.28704,11.11044 -4.77712,14.323 -6.22112,5.7264 -18.56171,8.45352 -25.94436,5.73337 z"
       id="path4234"
       inkscape:connector-curvature="0" />
    <path
       style="fill:none;fill-rule:evenodd;stroke:#000000;stroke-width:1.51690066px;stroke-linecap:butt;stroke-linejoin:miter;stroke-opacity:1"
       d="m 216.85564,330.9987 c -5.84325,-5.46044 -9.88324,-12.81954 -11.35331,-20.68076 -0.0641,-0.34299 -0.12367,-0.68811 -0.13728,-1.03677 -0.0136,-0.34867 0.0199,-0.70272 0.13728,-1.0313 0.193,-0.54015 0.61197,-0.98839 1.12165,-1.25152 0.50968,-0.26312 1.10395,-0.34605 1.67258,-0.27081 0.56864,0.0753 1.11163,0.30402 1.58609,0.62635 0.47446,0.32232 0.8823,0.73644 1.23027,1.19243 0.69592,0.91199 1.15062,1.97999 1.63527,3.01977 0.48466,1.03978 1.02005,2.08243 1.83679,2.88801 1.14359,1.12797 2.71745,1.67978 4.10495,2.48908 0.69374,0.40465 1.35488,0.88583 1.86094,1.50948 0.50606,0.62364 0.84896,1.40253 0.84608,2.20566 -0.002,0.54535 -0.1624,1.08354 -0.41849,1.56502 -0.25609,0.48149 -0.60564,0.90871 -0.99446,1.2911 -0.77766,0.76477 -1.7093,1.35321 -2.53777,2.06263 -0.41424,0.3547 -0.8043,0.7417 -1.12411,1.18343 -0.31981,0.44173 -0.56848,0.94062 -0.68234,1.47395 -0.11386,0.53333 -0.0881,1.10242 0.11736,1.60758 0.20548,0.50516 0.59781,0.94052 1.0985,1.15667 0.43934,0.18967 0.94344,0.20494 1.40724,0.0871 0.4638,-0.11784 0.88896,-0.36307 1.25616,-0.66993 0.73439,-0.61371 1.23336,-1.45465 1.77944,-2.24064 0.54609,-0.78599 1.18958,-1.5603 2.07299,-1.92849 0.44171,-0.1841 0.93648,-0.2566 1.40519,-0.16011 0.46871,0.0965 0.9071,0.37068 1.16162,0.77592 0.19118,0.30439 0.27335,0.67047 0.26251,1.02975 -0.0108,0.35928 -0.11143,0.71218 -0.26251,1.03833 -0.36667,0.79159 -1.03029,1.42725 -1.80263,1.83292 -0.77233,0.40567 -1.64854,0.59052 -2.52059,0.61499 -1.7441,0.0489 -3.43737,-0.52076 -5.10938,-1.01943 -1.67201,-0.49867 -3.43094,-0.9357 -5.1465,-0.61765 -0.85778,0.15903 -1.68928,0.51306 -2.34714,1.08602 -0.65786,0.57297 -1.13179,1.37352 -1.23905,2.23929 -0.0848,0.68489 0.0564,1.38024 0,2.06807 -0.0286,0.34893 -0.10777,0.69208 -0.14008,1.04068 -0.0323,0.34861 -0.0145,0.71328 0.14008,1.0274 0.10369,0.21069 0.26734,0.39146 0.4667,0.51554 0.19936,0.12409 0.43382,0.19109 0.66864,0.19109 0.23482,0 0.46928,-0.067 0.66864,-0.19109 0.19936,-0.12408 0.36301,-0.30485 0.4667,-0.51554"
       id="path4236"
       inkscape:path-effect="#path-effect4238"
       inkscape:original-d="m 216.85564,330.9987 c -5.51067,-8.78327 -9.01977,-12.17943 -11.35331,-20.68076 -0.18356,-0.66878 -0.53519,-1.58062 0,-2.06807 1.95677,-1.78218 8.92728,6.06273 9.08265,6.20423 2.27066,2.06808 6.41368,3.30211 6.81197,6.20422 0.50555,3.68364 -6.80224,7.25155 -4.54131,10.34038 1.87759,2.56513 5.79879,-3.38844 9.08264,-4.13615 0.73428,-0.1672 0.67696,1.75979 0,2.06808 -5.58252,2.54222 -12.58277,1.59392 -18.16529,4.13614 -0.67697,0.30829 0,1.37872 0,2.06807 0,0.68936 -0.53519,1.58064 0,2.06808 0.5352,0.48745 1.51379,0 2.27068,0"
       inkscape:connector-curvature="0" />
    <path
       style="fill:none;fill-rule:evenodd;stroke:#000000;stroke-width:1.51690066px;stroke-linecap:butt;stroke-linejoin:miter;stroke-opacity:1"
       d="m 232.75025,339.27099 -4.54132,-18.61267"
       id="path4240"
       inkscape:path-effect="#path-effect4242"
       inkscape:original-d="m 232.75025,339.27099 -4.54132,-18.61267"
       inkscape:connector-curvature="0" />
    <path
       style="fill:none;fill-rule:evenodd;stroke:#000000;stroke-width:1.51690066px;stroke-linecap:butt;stroke-linejoin:miter;stroke-opacity:1"
       d="m 250.91552,333.06677 c 23.30048,-4.99873 46.78519,-9.13862 70.39044,-12.40845 5.29239,-0.73311 10.59083,-1.4225 15.89461,-2.06808"
       id="path4244"
       inkscape:path-effect="#path-effect4246"
       inkscape:original-d="m 250.91552,333.06677 70.39044,-12.40845 c 5.2982,-0.68936 10.59639,-1.37871 15.89461,-2.06808"
       inkscape:connector-curvature="0" />
    <path
       style="fill:none;fill-rule:evenodd;stroke:#000000;stroke-width:1.51690066px;stroke-linecap:butt;stroke-linejoin:miter;stroke-opacity:1"
       d="m 359.90716,320.65832 0,-10.34038"
       id="path4248"
       inkscape:path-effect="#path-effect4250"
       inkscape:original-d="m 359.90716,320.65832 0,-10.34038"
       inkscape:connector-curvature="0" />
    <path
       style="fill:none;fill-rule:evenodd;stroke:#000000;stroke-width:1.51690066px;stroke-linecap:butt;stroke-linejoin:miter;stroke-opacity:1"
       d="m 348.55385,316.52218 c -4.51667,1.45822 -9.05892,2.83722 -13.62395,4.13614 -4.56587,1.29916 -9.16039,2.52007 -13.62394,4.13615 -2.23557,0.80941 -4.45951,1.72344 -6.81199,2.06808 -1.50267,0.22014 -3.0362,0.2027 -4.54132,0 -0.37881,-0.051 -0.75682,-0.11377 -1.1386,-0.13233 -0.38177,-0.0186 -0.7705,0.008 -1.13205,0.13233 -0.49061,0.16826 -0.90611,0.50635 -1.26203,0.88362 -0.35592,0.37727 -0.66237,0.7983 -1.00863,1.18446 -1.42492,1.58913 -3.54223,2.53445 -5.67664,2.53445 -2.13442,0 -4.25173,-0.94532 -5.67665,-2.53445"
       id="path4252"
       inkscape:path-effect="#path-effect4254"
       inkscape:original-d="m 348.55385,316.52218 c -19.73828,4.4943 -1.40299,-0.31611 -13.62395,4.13614 -4.44458,1.61923 -9.08263,2.75743 -13.62394,4.13615 -2.27068,0.68935 -4.46497,1.64055 -6.81199,2.06808 -1.48436,0.27038 -3.02754,0 -4.54132,0 -0.75688,0 -1.59366,-0.30829 -2.27065,0 -0.95739,0.43598 -1.2552,1.75979 -2.27066,2.06808 -1.03943,0.31555 -10.08591,0 -11.35329,0"
       inkscape:connector-curvature="0" />
    <path
       style="fill:none;fill-rule:evenodd;stroke:#000000;stroke-width:15.1690073;stroke-linecap:butt;stroke-linejoin:miter;stroke-miterlimit:4;stroke-dasharray:none;stroke-opacity:1"
       d="m 262.26882,326.86255 -36.33054,0"
       id="path4256"
       inkscape:path-effect="#path-effect4258"
       inkscape:original-d="m 262.26882,326.86255 c -12.11019,0 -24.22038,0 -36.33054,0"
       inkscape:connector-curvature="0" />
    <path
       style="fill:none;fill-rule:evenodd;stroke:#000000;stroke-width:15.1690073;stroke-linecap:butt;stroke-linejoin:miter;stroke-miterlimit:4;stroke-dasharray:none;stroke-opacity:1"
       d="m 178.25444,316.52218 11.35328,0 c 0.38861,0 0.77521,-0.0478 1.15625,-0.1241 0.19052,-0.0381 0.38333,-0.0748 0.57754,-0.0687 0.19421,0.006 0.39449,0.0605 0.53687,0.19276 0.13166,0.12227 0.20132,0.3009 0.21872,0.47973 0.0174,0.17884 -0.0133,0.35905 -0.0576,0.53321 -0.0442,0.17415 -0.10197,0.34483 -0.1402,0.52039 -0.0382,0.17557 -0.0566,0.35862 -0.021,0.53473 0.0421,0.20802 0.15946,0.39777 0.31781,0.53907 0.15835,0.1413 0.35608,0.2353 0.56287,0.28305 0.41358,0.0955 0.84942,0.008 1.24768,-0.13837 0.39825,-0.14684 0.7726,-0.35224 1.16846,-0.50541 0.39586,-0.15318 0.82683,-0.25393 1.24451,-0.17834 0.25771,0.0466 0.50079,0.15932 0.71637,0.30803 0.21558,0.14871 0.40478,0.33295 0.57691,0.53034 0.34425,0.39478 0.62315,0.84385 0.97737,1.22971 0.82249,0.89595 2.00072,1.39301 3.18993,1.648 1.1892,0.25499 2.41248,0.29285 3.62204,0.42007 7.09595,0.74635 13.502,4.52199 20.43595,6.20424 2.67331,0.64857 5.41192,0.98227 8.11217,1.50751 2.70026,0.52523 5.3981,1.25673 7.78245,2.62863 0.72798,0.41886 1.42263,0.89515 2.16359,1.29059 0.74096,0.39544 1.54042,0.71179 2.37772,0.77748 1.08442,0.0851 2.15912,-0.25452 3.15331,-0.69586 0.9942,-0.44134 1.94252,-0.98873 2.9655,-1.35847 1.02299,-0.36973 2.15642,-0.55387 3.19837,-0.24157 0.52098,0.15614 1.00882,0.43743 1.37873,0.83614 0.3699,0.39871 0.61689,0.91739 0.65738,1.45976 0.0258,0.34602 -0.0306,0.69207 -0.0652,1.03732 -0.0346,0.34526 -0.0462,0.70213 0.0652,1.03076 0.14239,0.42027 0.48214,0.75943 0.88523,0.94496 0.40309,0.18552 0.86393,0.22537 1.30285,0.16015 0.87784,-0.13045 1.64019,-0.65262 2.37089,-1.1563 0.7307,-0.50369 1.50148,-1.01757 2.38215,-1.12723 0.44034,-0.0548 0.90054,-0.001 1.29681,0.19846 0.39626,0.1997 0.72233,0.55343 0.8447,0.97996 0.0956,0.33319 0.0658,0.68814 0.0264,1.03252 -0.0394,0.34439 -0.0875,0.69435 -0.0264,1.03555 0.075,0.41864 0.31555,0.79992 0.64138,1.07325 0.32582,0.27334 0.73278,0.44184 1.15228,0.51177 0.83902,0.13985 1.69661,-0.10488 2.47595,-0.44565 0.77934,-0.34078 1.51634,-0.77987 2.31866,-1.06234 0.40116,-0.14124 0.81871,-0.24264 1.24331,-0.26708 0.42459,-0.0245 0.8571,0.0298 1.25106,0.19005 0.47862,0.19465 0.88313,0.53693 1.23946,0.91108 0.35633,0.37416 0.67285,0.78479 1.0312,1.15701 0.8523,0.88529 1.93387,1.53901 3.09745,1.93425 1.16359,0.39525 2.4074,0.53578 3.63426,0.46525 2.45371,-0.14105 4.79823,-1.11276 6.89225,-2.3995 0.37147,-0.22826 0.75182,-0.47247 1.18365,-0.53252 0.21592,-0.03 0.4417,-0.0109 0.64084,0.0778 0.19913,0.0887 0.36923,0.25074 0.44617,0.45471 0.0633,0.16779 0.0618,0.35401 0.0309,0.53066 -0.0309,0.17664 -0.0898,0.34693 -0.13948,0.51924 -0.0497,0.17231 -0.0905,0.34987 -0.0837,0.52907 0.007,0.17919 0.0658,0.362 0.19232,0.48911 0.0687,0.0691 0.15497,0.11945 0.24682,0.15195 0.0919,0.0325 0.1893,0.0475 0.28667,0.0508 0.19475,0.007 0.38795,-0.032 0.57863,-0.0721 0.38135,-0.0803 0.76882,-0.13066 1.15853,-0.13066 l 13.62395,0 c 0.37955,0 0.75888,0.0156 1.13759,0.0409 0.37871,0.0253 0.76503,0.0519 1.13307,-0.0409 0.50524,-0.12734 0.92717,-0.4757 1.27469,-0.86391 0.34753,-0.38822 0.63888,-0.82473 0.99597,-1.20417 0.87157,-0.92614 2.13424,-1.47174 3.40599,-1.47174 1.27176,0 2.53443,0.5456 3.406,1.47174 -0.1906,-0.0956 -0.35382,-0.24503 -0.4658,-0.42648 -0.11199,-0.18145 -0.1724,-0.39434 -0.1724,-0.60757 0,-0.21322 0.0604,-0.42611 0.1724,-0.60756 0.11198,-0.18145 0.2752,-0.33089 0.4658,-0.42648 0.18749,-0.094 0.39887,-0.1356 0.60862,-0.136 0.20975,-4e-4 0.41821,0.0394 0.61865,0.10118 0.40087,0.12361 0.76877,0.33333 1.15263,0.50254 0.38386,0.16922 0.80104,0.30015 1.21769,0.25135 0.20833,-0.0244 0.41308,-0.095 0.58313,-0.21778 0.17005,-0.1228 0.30372,-0.2994 0.36059,-0.50129 0.0484,-0.17167 0.0406,-0.35481 0.009,-0.53041 -0.0312,-0.1756 -0.0852,-0.3462 -0.12909,-0.51907 -0.0439,-0.17286 -0.0779,-0.35052 -0.0679,-0.52859 0.01,-0.17807 0.0675,-0.35812 0.18758,-0.49 0.13299,-0.14608 0.33159,-0.2204 0.5286,-0.23499 0.197,-0.0146 0.39409,0.0253 0.58442,0.0782 0.19034,0.0529 0.37728,0.11902 0.57078,0.1588 0.1935,0.0398 0.39695,0.0523 0.58686,-0.002 0.18367,-0.0526 0.34729,-0.16696 0.4691,-0.31414 0.12182,-0.14718 0.20274,-0.32608 0.24466,-0.51247 0.0838,-0.37279 0.0134,-0.76469 -0.10973,-1.1264 -0.12314,-0.36172 -0.2978,-0.70379 -0.43102,-1.06191 -0.13322,-0.35812 -0.22526,-0.74272 -0.17301,-1.12123 0.0588,-0.42578 0.30229,-0.81628 0.63696,-1.08599 0.33468,-0.26971 0.75501,-0.4228 1.18229,-0.46945 0.85457,-0.0933 1.70096,0.2235 2.46613,0.61531 0.76516,0.39181 1.49542,0.86692 2.31346,1.1311 0.40903,0.13209 0.83908,0.20964 1.26844,0.18959 0.42935,-0.02 0.85853,-0.14093 1.21536,-0.38056 0.43106,-0.28948 0.73197,-0.72989 1.05725,-1.13462 0.16264,-0.20237 0.3346,-0.39894 0.53414,-0.56504 0.19954,-0.16609 0.42842,-0.30151 0.67927,-0.36841 0.40631,-0.10837 0.84115,-0.0304 1.23733,0.11051 0.39618,0.14096 0.76796,0.34309 1.16062,0.49357 0.39267,0.15048 0.82036,0.24913 1.23345,0.17046 0.20654,-0.0393 0.40611,-0.1238 0.56931,-0.25636 0.1632,-0.13256 0.28856,-0.31446 0.3406,-0.51818 0.044,-0.17235 0.0353,-0.35436 0.005,-0.52961 -0.0305,-0.17525 -0.0821,-0.34602 -0.12369,-0.51896 -0.0416,-0.17295 -0.0734,-0.35034 -0.063,-0.52792 0.0104,-0.17758 0.0659,-0.35678 0.18194,-0.49158 0.12925,-0.15012 0.32405,-0.23339 0.5207,-0.25727 0.19665,-0.0239 0.39616,0.007 0.58838,0.0548 0.19223,0.0479 0.37995,0.11274 0.57261,0.15879 0.19267,0.0461 0.39308,0.0731 0.58897,0.0437 0.2899,-0.0435 0.55436,-0.21227 0.73632,-0.44212 0.18196,-0.22984 0.28428,-0.51714 0.31446,-0.80874 0.0604,-0.58318 -0.15719,-1.1594 -0.42448,-1.68124 -0.26729,-0.52183 -0.59014,-1.02077 -0.76774,-1.57953 -0.0888,-0.27937 -0.14003,-0.57303 -0.12441,-0.86577 0.0156,-0.29273 0.10034,-0.58488 0.26585,-0.82684 0.25132,-0.36742 0.69017,-0.59893 1.13533,-0.59893 0.44515,0 0.884,0.23151 1.13532,0.59893 -0.18064,-0.10406 -0.33319,-0.25638 -0.43751,-0.43686 -0.10432,-0.18049 -0.16017,-0.38871 -0.16017,-0.59717 0,-0.20847 0.0559,-0.41669 0.16017,-0.59718 0.10432,-0.18048 0.25687,-0.3328 0.43751,-0.43686 0.17552,-0.10111 0.37552,-0.15624 0.57735,-0.17338 0.20183,-0.0171 0.40568,0.003 0.60376,0.0452 0.39617,0.0847 0.76727,0.25637 1.14453,0.40399 0.37726,0.14762 0.7736,0.27355 1.17847,0.25929 0.20243,-0.007 0.40493,-0.0502 0.58703,-0.1389 0.1821,-0.0887 0.34317,-0.22427 0.4502,-0.39624 0.093,-0.14938 0.14349,-0.32263 0.16271,-0.49753 0.0192,-0.1749 0.008,-0.35194 -0.0154,-0.52632 -0.0471,-0.34875 -0.14365,-0.69234 -0.14729,-1.04423 -0.006,-0.5492 0.22343,-1.08972 0.592,-1.49692 0.36856,-0.4072 0.86931,-0.68444 1.40078,-0.82299 1.06294,-0.2771 2.19787,-0.01 3.20626,0.42597 1.00838,0.43565 1.93918,1.03577 2.94776,1.47095 1.00858,0.43519 2.14392,0.70156 3.20648,0.42299 1.02976,-0.26997 1.9059,-1.06794 2.27066,-2.06806"
       id="path4260"
       inkscape:path-effect="#path-effect4262"
       inkscape:original-d="m 178.25444,316.52218 c 3.78442,0 7.56885,0 11.35328,0 0.75688,0 1.73547,-0.48746 2.27066,0 0.5352,0.48745 -0.53519,1.58061 0,2.06806 1.0704,0.97492 3.18736,-0.61657 4.54133,0 0.95739,0.43599 1.31325,1.63209 2.27065,2.06808 2.1408,0.97491 4.5709,1.30264 6.81197,2.06807 17.10099,5.84073 5.21684,2.73892 20.43595,6.20424 5.74161,1.30733 10.46541,2.15821 15.89462,4.13614 1.57138,0.57247 2.89939,1.69422 4.54131,2.06807 0.41113,0.0937 11.21192,-0.12869 11.35329,0 0.53519,0.48745 -0.5352,1.58064 0,2.06808 0.54638,0.49764 8.53624,-0.49764 9.08263,0 0.5352,0.48745 -0.5352,1.58063 0,2.06807 0.6213,0.56587 7.85084,-0.56095 9.08264,0 0.9574,0.43599 1.25518,1.7598 2.27066,2.06809 1.25571,0.38122 11.33728,0 13.62396,0 0.75688,0 1.73545,-0.48745 2.27066,0 0.5352,0.48744 -0.53521,1.58062 0,2.06808 0.5352,0.48743 1.51377,0 2.27065,0 4.54131,0 9.08264,0 13.62395,0 0.7569,0 1.59368,0.30829 2.27066,0 0.9574,-0.436 1.2552,-1.7598 2.27066,-2.06808 0.009,-0.003 6.80981,10e-4 6.81199,0 0.53518,-0.48745 -0.5352,-1.58064 0,-2.06809 1.07039,-0.97489 3.47091,0.97491 4.54131,0 0.53521,-0.48744 -0.5352,-1.58062 0,-2.06807 0.53521,-0.48744 1.73546,0.48745 2.27066,0 1.07041,-0.97489 -1.07039,-3.16124 0,-4.13615 0.6213,-0.56587 7.85082,0.56096 9.08264,0 0.95739,-0.43599 1.31327,-1.63209 2.27066,-2.06807 1.35395,-0.61658 3.47092,0.9749 4.54131,0 0.5352,-0.48746 -0.5352,-1.58063 0,-2.06807 0.5352,-0.48745 1.73545,0.48744 2.27066,0 1.13533,-1.03404 -1.13533,-5.17019 0,-6.20424 0.5352,-0.48744 1.51377,0 2.27065,0 0,-0.68935 -0.53519,-1.58062 0,-2.06807 1.07041,-0.97489 3.47092,0.97491 4.54134,0 0.53518,-0.48745 -0.5352,-1.58061 0,-2.06808 0.70309,-0.64036 10.65018,0.64037 11.35328,0 3.02755,-2.75743 -3.78443,-2.06806 2.27066,-2.06806"
       inkscape:connector-curvature="0" />
    <path
       style="fill:none;fill-rule:evenodd;stroke:#000000;stroke-width:10.51964569;stroke-linecap:butt;stroke-linejoin:miter;stroke-miterlimit:4;stroke-dasharray:none;stroke-opacity:1"
       d="m 185.26608,322.89454 -240.723369,278.00027 16.211941,85.09282 95.85376,9.55929 247.732118,-270.23315"
       id="path4272"
       inkscape:path-effect="#path-effect4274"
       inkscape:original-d="M 185.26608,322.89454 C -42.82735,610.61963 -55.457289,600.89481 -55.457289,600.89481 l 16.211941,85.09282 95.85376,9.55929 C 141.54191,604.2302 132.49462,221.73205 304.34053,425.31377"
       inkscape:connector-curvature="0"
       sodipodi:nodetypes="ccccc" />
  </g>
</svg>
