<?xml version="1.0" encoding="UTF-8" standalone="no"?>
<!-- Created with Inkscape (http://www.inkscape.org/) -->

<svg
   xmlns:dc="http://purl.org/dc/elements/1.1/"
   xmlns:cc="http://creativecommons.org/ns#"
   xmlns:rdf="http://www.w3.org/1999/02/22-rdf-syntax-ns#"
   xmlns:svg="http://www.w3.org/2000/svg"
   xmlns="http://www.w3.org/2000/svg"
   xmlns:sodipodi="http://sodipodi.sourceforge.net/DTD/sodipodi-0.dtd"
   xmlns:inkscape="http://www.inkscape.org/namespaces/inkscape"
   width="210mm"
   height="297mm"
   viewBox="0 0 744.09448819 1052.3622047"
   id="svg2"
   version="1.1"
   inkscape:version="0.91 r13725"
   sodipodi:docname="filter.svg">
  <defs
     id="defs4">
    <inkscape:path-effect
       effect="spiro"
       id="path-effect4144"
       is_visible="true" />
  </defs>
  <sodipodi:namedview
     id="base"
     pagecolor="#ffffff"
     bordercolor="#666666"
     borderopacity="1.0"
     inkscape:pageopacity="0.0"
     inkscape:pageshadow="2"
     inkscape:zoom="0.49497475"
     inkscape:cx="1189.8127"
     inkscape:cy="283.48665"
     inkscape:document-units="px"
     inkscape:current-layer="layer1"
     showgrid="false"
     inkscape:window-width="686"
     inkscape:window-height="405"
     inkscape:window-x="300"
     inkscape:window-y="311"
     inkscape:window-maximized="0" />
  <metadata
     id="metadata7">
    <rdf:RDF>
      <cc:Work
         rdf:about="">
        <dc:format>image/svg+xml</dc:format>
        <dc:type
           rdf:resource="http://purl.org/dc/dcmitype/StillImage" />
        <dc:title></dc:title>
      </cc:Work>
    </rdf:RDF>
  </metadata>
  <g
     inkscape:label="Layer 1"
     inkscape:groupmode="layer"
     id="layer1">
    <rect
       style="fill:none;fill-opacity:1;stroke:#000000;stroke-width:18.98516273;stroke-linecap:round;stroke-linejoin:round;stroke-miterlimit:4;stroke-dasharray:none;stroke-opacity:1"
       id="rect4136"
       width="727.29108"
       height="737.30664"
       x="-22.246479"
       y="180.09303" />
    <path
       style="fill:none;fill-rule:evenodd;stroke:#000000;stroke-width:18.98516273;stroke-linecap:butt;stroke-linejoin:miter;stroke-miterlimit:4;stroke-dasharray:none;stroke-opacity:1"
       d="M 68.961479,715.54822 251.74005,337.83218 426.21051,635.74905 519.26142,511.61702 617.2972,781.16085"
       id="path4152"
       inkscape:connector-curvature="0" />
    <path
       style="fill:none;fill-rule:evenodd;stroke:#000000;stroke-width:18.98516273;stroke-linecap:butt;stroke-linejoin:miter;stroke-miterlimit:4;stroke-dasharray:none;stroke-opacity:1"
       d="m 113.82531,626.88247 -137.91474,0"
       id="path4154"
       inkscape:connector-curvature="0" />
    <path
       style="fill:none;fill-rule:evenodd;stroke:#000000;stroke-width:18.98516273;stroke-linecap:butt;stroke-linejoin:miter;stroke-miterlimit:4;stroke-dasharray:none;stroke-opacity:1"
       d="m 575.75661,660.57545 126.28338,3.54663"
       id="path4156"
       inkscape:connector-curvature="0" />
    <path
       style="fill:none;fill-rule:evenodd;stroke:none;stroke-width:17.87353706;stroke-linecap:round;stroke-linejoin:round;stroke-miterlimit:4;stroke-dasharray:none;stroke-opacity:1"
       d="m 383.711,195.9031 -89.11749,120.15221 89.11749,112.94306 -78.24947,115.34612 58.6871,116.54766 -57.60033,126.15982 69.55511,114.14455"
       id="path4142"
       inkscape:original-d="m 383.711,195.9031 -89.11749,120.15221 89.11749,112.94306 -78.24947,115.34612 58.6871,116.54766 -57.60033,126.15982 69.55511,114.14455"
       inkscape:connector-curvature="0"
       inkscape:path-effect="#path-effect4144" />
    <path
       style="fill:none;fill-rule:evenodd;stroke:#000000;stroke-width:26.33889198;stroke-linecap:butt;stroke-linejoin:miter;stroke-miterlimit:4;stroke-dasharray:none;stroke-opacity:1"
       d="m 366.04863,171.54009 c -0.53846,740.46232 1.29801,748.45107 1.29801,748.45107"
       id="path4254"
       inkscape:connector-curvature="0" />
    <path
       style="fill:#000000;fill-opacity:1;stroke:#000000;stroke-width:38.28478241;stroke-linecap:round;stroke-linejoin:round;stroke-miterlimit:4;stroke-dasharray:none;stroke-opacity:1"
       d="m -12.268836,772.10804 0,-135.36044 53.538084,0 c 29.445947,0 53.538085,0.32418 53.538085,0.72038 0,0.39622 -7.727667,16.65473 -17.172593,36.13003 -9.444926,19.47529 -17.172593,36.28666 -17.172593,37.35857 0,2.47348 15.239577,9.44258 17.502173,8.00378 0.929898,-0.59132 40.32906,-81.12826 87.55369,-178.97097 47.22463,-97.84271 86.52537,-177.69273 87.33498,-177.44448 0.8096,0.24824 23.30598,37.72598 49.99193,83.28386 l 48.51991,82.83251 0.0101,128.46536 c 0.006,70.65593 0.61179,155.88755 1.34657,189.4036 l 1.33645,60.93824 -183.16339,0 -183.163396,0 0,-135.36044 z"
       id="path4266"
       inkscape:connector-curvature="0" />
    <path
       style="fill:#000000;fill-opacity:1;stroke:#000000;stroke-width:38.28478241;stroke-linecap:round;stroke-linejoin:round;stroke-miterlimit:4;stroke-dasharray:none;stroke-opacity:1"
       d="m 610.03229,650.97449 -29.24727,-1.0949 -28.49273,-78.27978 c -15.671,-43.05385 -28.97615,-78.76317 -29.56699,-79.35402 -0.59085,-0.59084 -22.23612,27.16033 -48.10061,61.6693 -25.86449,34.50898 -47.25718,62.49061 -47.53932,62.18144 -0.28214,-0.30917 -11.06593,-18.57224 -23.964,-40.5846 l -23.45102,-40.02244 0,-172.61466 0,-172.61465 157.5838,0 157.58379,0 0,231.32493 0,231.32493 -27.77919,-0.42032 c -15.27856,-0.23119 -40.94047,-0.91304 -57.02646,-1.51523 z"
       id="path4268"
       inkscape:connector-curvature="0" />
  </g>
</svg>
