<?xml version="1.0" encoding="UTF-8" standalone="no"?>
<!-- Generator: Adobe Illustrator 19.2.1, SVG Export Plug-In . SVG Version: 6.00 Build 0)  -->

<svg
   xmlns:dc="http://purl.org/dc/elements/1.1/"
   xmlns:cc="http://creativecommons.org/ns#"
   xmlns:rdf="http://www.w3.org/1999/02/22-rdf-syntax-ns#"
   xmlns:svg="http://www.w3.org/2000/svg"
   xmlns="http://www.w3.org/2000/svg"
   xmlns:sodipodi="http://sodipodi.sourceforge.net/DTD/sodipodi-0.dtd"
   xmlns:inkscape="http://www.inkscape.org/namespaces/inkscape"
   version="1.1"
   id="Layer_1"
   x="0px"
   y="0px"
   viewBox="0 0 612 792"
   style="enable-background:new 0 0 612 792;"
   xml:space="preserve"
   inkscape:version="0.91 r13725"
   sodipodi:docname="pencil.svg"><metadata
     id="metadata55"><rdf:RDF><cc:Work
         rdf:about=""><dc:format>image/svg+xml</dc:format><dc:type
           rdf:resource="http://purl.org/dc/dcmitype/StillImage" /></cc:Work></rdf:RDF></metadata><defs
     id="defs53" /><sodipodi:namedview
     pagecolor="#ffffff"
     bordercolor="#666666"
     borderopacity="1"
     objecttolerance="10"
     gridtolerance="10"
     guidetolerance="10"
     inkscape:pageopacity="0"
     inkscape:pageshadow="2"
     inkscape:window-width="686"
     inkscape:window-height="480"
     id="namedview51"
     showgrid="false"
     inkscape:zoom="0.2979798"
     inkscape:cx="186.73072"
     inkscape:cy="396"
     inkscape:window-x="0"
     inkscape:window-y="0"
     inkscape:window-maximized="0"
     inkscape:current-layer="Layer_1" /><style
     type="text/css"
     id="style3">
	.st0{fill:none;stroke:#000000;stroke-width:10;stroke-linecap:round;stroke-miterlimit:10;}
</style><line
     class="st0"
     x1="227"
     y1="104"
     x2="16"
     y2="377"
     id="line5"
     style="fill:none;stroke:#000000;stroke-width:10;stroke-linecap:round;stroke-miterlimit:10" /><line
     class="st0"
     x1="10"
     y1="509"
     x2="16"
     y2="377"
     id="line7"
     style="fill:none;stroke:#000000;stroke-width:10;stroke-linecap:round;stroke-miterlimit:10" /><line
     class="st0"
     x1="176"
     y1="489"
     x2="10"
     y2="509"
     id="line9"
     style="fill:none;stroke:#000000;stroke-width:10;stroke-linecap:round;stroke-miterlimit:10" /><line
     class="st0"
     x1="381.89999"
     y1="233.89999"
     x2="176"
     y2="489"
     id="line11"
     style="fill:none;stroke:#000000;stroke-width:10;stroke-linecap:round;stroke-miterlimit:10" /><line
     class="st0"
     x1="227"
     y1="104"
     x2="381.89999"
     y2="233.89999"
     id="line13"
     style="fill:none;stroke:#000000;stroke-width:10;stroke-linecap:round;stroke-miterlimit:10" /><line
     class="st0"
     x1="16"
     y1="377"
     x2="176"
     y2="489"
     id="line15"
     style="fill:none;stroke:#000000;stroke-width:10;stroke-linecap:round;stroke-miterlimit:10" /><line
     class="st0"
     x1="11.6"
     y1="474"
     x2="53.200001"
     y2="503.79999"
     id="line17"
     style="fill:none;stroke:#000000;stroke-width:10;stroke-linecap:round;stroke-miterlimit:10" /><line
     class="st0"
     x1="186.3"
     y1="156.7"
     x2="335.29999"
     y2="280.79999"
     id="line19"
     style="fill:none;stroke:#000000;stroke-width:10;stroke-linecap:round;stroke-miterlimit:10" /><g
     id="g21"
     transform="translate(0,22)"><g
       id="g23"><path
         d="m 20,477.5 c 9.7,0 9.7,-15 0,-15 -9.7,0 -9.7,15 0,15 l 0,0 z"
         id="path25"
         inkscape:connector-curvature="0" /></g></g><g
     id="g27"
     transform="translate(0,22)"><g
       id="g29"><path
         d="m 17,471.5 c 9.7,0 9.7,-15 0,-15 -9.7,0 -9.7,15 0,15 l 0,0 z"
         id="path31"
         inkscape:connector-curvature="0" /></g></g><g
     id="g33"
     transform="translate(0,22)"><g
       id="g35"><path
         d="m 19,485.5 c 9.7,0 9.7,-15 0,-15 -9.7,0 -9.7,15 0,15 l 0,0 z"
         id="path37"
         inkscape:connector-curvature="0" /></g></g><g
     id="g39"
     transform="translate(0,22)"><g
       id="g41"><path
         d="m 29,483.5 c 9.7,0 9.7,-15 0,-15 -9.7,0 -9.7,15 0,15 l 0,0 z"
         id="path43"
         inkscape:connector-curvature="0" /></g></g><g
     id="g45"
     transform="translate(0,22)"><g
       id="g47"><path
         d="m 33,486.5 c 9.7,0 9.7,-15 0,-15 -9.7,0 -9.7,15 0,15 l 0,0 z"
         id="path49"
         inkscape:connector-curvature="0" /></g></g></svg>