<?xml version="1.0" encoding="utf-8"?>
<!-- Generator: Adobe Illustrator 19.2.1, SVG Export Plug-In . SVG Version: 6.00 Build 0)  -->
<svg version="1.1" id="Layer_1" xmlns="http://www.w3.org/2000/svg" xmlns:xlink="http://www.w3.org/1999/xlink" x="0px" y="0px"
	 viewBox="0 0 612 792" style="enable-background:new 0 0 612 792;" xml:space="preserve">
<style type="text/css">
	.st0{fill:none;stroke:#000000;stroke-width:10;stroke-linecap:round;stroke-miterlimit:10;}
</style>
<line class="st0" x1="74.1" y1="217.7" x2="68.4" y2="514.9"/>
<line class="st0" x1="252.6" y1="513.8" x2="68.4" y2="514.9"/>
<line class="st0" x1="74.1" y1="217.7" x2="253.4" y2="216.6"/>
<line class="st0" x1="252.6" y1="513.8" x2="259.7" y2="219.4"/>
<path d="M261.2,216.8c-2.2-15.2-18.6-22.1-35.9-24c-10.2-1.1-20.5-2-30.9-2.8c-0.7-1.4-1.4-2.8-2.1-4.3c1-1.3,1.4-2.8,1.1-4.5
	c0,0,0-0.1,0-0.1c0-0.1,0-0.2,0-0.4c0-0.1,0.1-0.2,0.1-0.3c0-0.1,0-0.1,0.1-0.1c0.1-0.1,0.2-0.3,0.3-0.4c1.2,0.3,2.3,0.6,3.5,0.9
	c5.6,1.5,9.5-3,8.6-7c-1.6-7.8-2.3-15.7-2.2-23.7c0.1-8.2,1.9-16.1,3-24.2c2-16.2-23.2-14.1-36.1-12.5c-6.3,0.8-6.3,6.4-2.5,9.3
	c2.7,10.5-4,17-11.4,25.1c-6.5,7.1-9.7,15.4-10.6,24.2c-0.2,2.4,2.4,4.9,5.2,5.4c5.2,1.1,10.5,2,15.9,2.7c-1,0.9-1.6,2.1-1.6,3.5
	v4.5c-0.5,0-1-0.1-1.4-0.1c-20.2-1.1-38.8,1.6-57.4,8c-9.1,3.2-17.9,6.9-26.5,10.8c-6.8,3.1-13.2,7.4-10.8,14.3c2.5,7,16.1,4,13.6-3
	c0,0.1,14.3-5.9,16.3-6.7c6.8-2.8,13.7-5.5,20.9-7.6c14.9-4.3,29.6-5.3,45.3-4.4c15.1,0.9,30.2,2.2,45.4,3.3
	c11.6,0.9,34.6,1.2,36.4,13.9C248.1,223.9,262.2,224,261.2,216.8z M186.4,170.6c-0.4-0.1-0.8-0.1-1.2-0.1
	c-8.2-0.3-16.2-1.2-24.2-2.6c2.4-8.6,9.1-14.4,15.3-22c5.4-6.7,7.3-14.5,6.2-22.3c4.7-0.3,9.5-0.1,10.3,2.2c0.7,1.9-1.1,5.8-1.5,7.7
	c0,0.2-0.1,0.4-0.1,0.6c-0.1,0-0.2,0-0.4,0c-8.8,0-9.1,10.6-0.9,11.3c-0.4,7.6,0,15.1,1,22.6C188.9,168.1,187.3,169.2,186.4,170.6z"
	/>
<path d="M248.8,506.3c-26.9-6.2-53.3-8.6-81.3-7.4c-28.8,1.2-57.6,2.7-86.4,4c-9,0.4-9.1,11.7,0,11.3c27.9-1.3,55.8-2.6,83.8-3.9
	c13.1-0.6,26.2-1,39.3,0.1c13.9,1.1,27.4,3.8,40.8,6.9C253.8,519.2,257.5,508.3,248.8,506.3z"/>
<path d="M342.2,99.3c-22.3,5.4-44.5,11.2-66.6,17.3c-19,5.3-40.2,9.7-55.3,20.9c-3.8,2.8-2.2,6.6,1.1,8.4c-1.3,2.8-0.2,6.5,4.4,7.7
	c33.9,8.9,68.6,15.6,103.8,19.9c8.9,1.1,12.7-9.8,3.7-10.9c-34-4.2-67.5-10.6-100.3-19c14.3-9.2,34.6-12.9,51.5-17.5
	c20.4-5.6,40.9-10.9,61.5-15.9C354.6,108.1,350.9,97.2,342.2,99.3z"/>
<path d="M311,219.3c-24-22.6-50.5-43.3-79.4-61.8c-7-4.5-17,3.4-9.9,8c28.8,18.6,55.4,39.2,79.4,61.8
	C307,232.9,316.9,224.8,311,219.3z"/>
</svg>
