<?xml version="1.0" encoding="utf-8"?>
<!-- Generator: Adobe Illustrator 19.2.1, SVG Export Plug-In . SVG Version: 6.00 Build 0)  -->
<svg version="1.1" id="Layer_1" xmlns="http://www.w3.org/2000/svg" xmlns:xlink="http://www.w3.org/1999/xlink" x="0px" y="0px"
	 viewBox="0 0 612 792" style="enable-background:new 0 0 612 792;" xml:space="preserve">
<style type="text/css">
	.st0{fill:none;stroke:#000000;stroke-width:10;stroke-linecap:round;stroke-miterlimit:10;}
	.st1{font-family:'MyriadCAD';}
	.st2{font-size:44.4673px;}
	.st3{fill:none;stroke:#000000;stroke-width:10;stroke-miterlimit:10;}
</style>
<path class="st0" d="M-25.1,326.6c0,64.9,78.9,117.4,176.3,117.4"/>
<path class="st0" d="M364,302.6c0,78.1-95.2,141.4-212.9,141.4"/>
<line class="st0" x1="364" y1="302.6" x2="-32" y2="326.6"/>
<text transform="matrix(0.7008 0 0 1 37.8154 373.3086)" class="st1 st2">I am a stamp!</text>
<path class="st3" d="M178.2,241.6c-4.2-44.7,26.1-84.7,67.8-89.3c33.3-3.6,63.1,22.5,66.4,58.1c2.7,28.6-16.7,54.2-43.4,57.1
	c-21.3,2.3-40.3-14.4-42.5-37.3c-1.7-18.4,10.6-34.7,27.7-36.6c13.6-1.5,25.9,9.2,27.2,23.8c1.1,11.7-6.9,22.2-17.7,23.4
	c-8.7,0.9-16.5-5.9-17.4-15.3c-0.7-7.5,4.3-14.3,11.3-14.9c5.6-0.6,10.5,3.8,11.1,9.8"/>
<path class="st3" d="M-18.6,224.1c7.8-39.6,46.2-65.3,86-57.6c31.8,6.2,52.4,36.8,46.2,68.5c-4.9,25.3-29.6,41.8-55.1,36.8
	c-20.4-4-33.5-23.6-29.6-43.9c3.2-16.2,19-26.8,35.3-23.6c13,2.5,21.5,15.1,19,28c-2.1,10.4-12.1,17.1-22.5,15.1
	c-8.4-1.6-13.7-9.7-12.1-18c1.3-6.6,7.8-10.9,14.4-9.7c5.4,1,8.8,6.2,7.8,11.5"/>
</svg>
